<svg xmlns="http://www.w3.org/2000/svg" width="87.124" height="87.124" viewBox="0 0 87.124 87.124">
  <g id="Spine_Surgeries" data-name="Spine Surgeries" transform="translate(-2954 -13435.91)">
    <g id="Path_9747" data-name="Path 9747" transform="translate(2954 13435.91)" fill="#004747">
      <path d="M 43.56201934814453 86.12404632568359 C 37.81575012207031 86.12404632568359 32.24187850952148 84.99885559082031 26.99526596069336 82.77971649169922 C 21.92713737487793 80.63607788085938 17.37526702880859 77.56705474853516 13.46612548828125 73.65791320800781 C 9.556983947753906 69.74877166748047 6.487960338592529 65.1968994140625 4.344325065612793 60.1287727355957 C 2.125184059143066 54.88216018676758 0.9999958276748657 49.30828857421875 0.9999958276748657 43.56201934814453 C 0.9999958276748657 37.81575012207031 2.125184059143066 32.24187850952148 4.344325065612793 26.99526596069336 C 6.487960338592529 21.92713737487793 9.556983947753906 17.37526702880859 13.46612548828125 13.46612548828125 C 17.37526702880859 9.556983947753906 21.92713737487793 6.487960338592529 26.99526596069336 4.344325065612793 C 32.24187850952148 2.125184059143066 37.81575012207031 0.9999958276748657 43.56201934814453 0.9999958276748657 C 49.30828857421875 0.9999958276748657 54.88216018676758 2.125184059143066 60.1287727355957 4.344325065612793 C 65.1968994140625 6.487960338592529 69.74877166748047 9.556983947753906 73.65791320800781 13.46612548828125 C 77.56705474853516 17.37526702880859 80.63607788085938 21.92713737487793 82.77971649169922 26.99526596069336 C 84.99885559082031 32.24187850952148 86.12404632568359 37.81575012207031 86.12404632568359 43.56201934814453 C 86.12404632568359 49.30828857421875 84.99885559082031 54.88216018676758 82.77971649169922 60.1287727355957 C 80.63607788085938 65.1968994140625 77.56705474853516 69.74877166748047 73.65791320800781 73.65791320800781 C 69.74877166748047 77.56705474853516 65.1968994140625 80.63607788085938 60.1287727355957 82.77971649169922 C 54.88216018676758 84.99885559082031 49.30828857421875 86.12404632568359 43.56201934814453 86.12404632568359 Z" stroke="none"/>
      <path d="M 43.56201934814453 1.999992370605469 C 37.9503059387207 1.999992370605469 32.50750732421875 3.098609924316406 27.38481903076172 5.26531982421875 C 22.43588256835938 7.358543395996094 17.99085998535156 10.35560607910156 14.17323303222656 14.17323303222656 C 10.35560607910156 17.99085998535156 7.358543395996094 22.43588256835938 5.26531982421875 27.38481903076172 C 3.098609924316406 32.50750732421875 1.999992370605469 37.9503059387207 1.999992370605469 43.56201934814453 C 1.999992370605469 49.17373275756836 3.098609924316406 54.61653137207031 5.26531982421875 59.73921966552734 C 7.358543395996094 64.68815612792969 10.35560607910156 69.13317108154297 14.17323303222656 72.9508056640625 C 17.99085998535156 76.7684326171875 22.43588256835938 79.76548004150391 27.38481903076172 81.85870361328125 C 32.50750732421875 84.02542114257812 37.9503059387207 85.12403106689453 43.56201934814453 85.12403106689453 C 49.17373275756836 85.12403106689453 54.61653137207031 84.02542114257812 59.73921966552734 81.85870361328125 C 64.68815612792969 79.76548004150391 69.13317108154297 76.7684326171875 72.9508056640625 72.9508056640625 C 76.7684326171875 69.13317108154297 79.76548004150391 64.68815612792969 81.85870361328125 59.73921966552734 C 84.02542114257812 54.61653137207031 85.12403106689453 49.17373275756836 85.12403106689453 43.56201934814453 C 85.12403106689453 37.9503059387207 84.02542114257812 32.50750732421875 81.85870361328125 27.38481903076172 C 79.76548004150391 22.43588256835938 76.7684326171875 17.99085998535156 72.9508056640625 14.17323303222656 C 69.13317108154297 10.35560607910156 64.68815612792969 7.358543395996094 59.73921966552734 5.26531982421875 C 54.61653137207031 3.098609924316406 49.17373275756836 1.999992370605469 43.56201934814453 1.999992370605469 M 43.56201934814453 -7.62939453125e-06 C 67.62065887451172 -7.62939453125e-06 87.12403106689453 19.50337982177734 87.12403106689453 43.56201934814453 C 87.12403106689453 67.62065887451172 67.62065887451172 87.12403106689453 43.56201934814453 87.12403106689453 C 19.50337982177734 87.12403106689453 -7.62939453125e-06 67.62065887451172 -7.62939453125e-06 43.56201934814453 C -7.62939453125e-06 19.50337982177734 19.50337982177734 -7.62939453125e-06 43.56201934814453 -7.62939453125e-06 Z" stroke="none" fill="#004747"/>
    </g>
    <g id="Group_10690" data-name="Group 10690" transform="translate(2982 13451.404)">
      <path id="Path_9725" data-name="Path 9725" d="M197.857,50.447a8.348,8.348,0,0,1,1.507.068,42.243,42.243,0,0,0,14.521,2.877,2.97,2.97,0,0,1,2.671,2.671,3.576,3.576,0,0,1-.205,1.849,12.139,12.139,0,0,1,2.466.685,2.223,2.223,0,0,1,.959,1.918,11.6,11.6,0,0,1-.616,3.082,2.235,2.235,0,0,1-1.986.959q-.89-.088-1.781-.137a3.735,3.735,0,0,1-.822,2.466,6.229,6.229,0,0,1,.411,2.877q4.392-.368,3.493,3.973A2.229,2.229,0,0,1,217.036,76a22.277,22.277,0,0,1-2.466.068,3.471,3.471,0,0,1-.685,2.534,3.777,3.777,0,0,1,.685,2.808,19.871,19.871,0,0,1,2.329.068,2.017,2.017,0,0,1,1.438,1.438q.116,1.095.206,2.192a2.281,2.281,0,0,1-1.781,2.534l-1.644.137a.5.5,0,0,0-.274.274,3.357,3.357,0,0,1-.411,2.329,3.85,3.85,0,0,1,.959,2.671,15.878,15.878,0,0,1,2.466-.068,2.063,2.063,0,0,1,1.438,1.3q.26,1.341.479,2.671a2.509,2.509,0,0,1-1.644,2.192q-.869.153-1.712.342a3.621,3.621,0,0,1-1.712,4.041,41.22,41.22,0,0,1-17.124,3.014,3.929,3.929,0,0,1-2.466-3.562,19.46,19.46,0,0,1-2.6,0,2.461,2.461,0,0,1-1.438-1.712q-.219-1.364-.342-2.74a2.361,2.361,0,0,1,1.37-2.4l1.918-.342q.021-1.218.068-2.466l.342-1.027a7.414,7.414,0,0,1-1.027-3.219,5.7,5.7,0,0,1-2.123.068,2.166,2.166,0,0,1-1.575-1.712,27.316,27.316,0,0,1-.137-3.425,2.8,2.8,0,0,1,3.63-1.918,5.9,5.9,0,0,1,.685-3.562,5.8,5.8,0,0,1-.685-3.151,8.33,8.33,0,0,1-2.74-.479,3.069,3.069,0,0,1-.959-2.123q.147-1.366.205-2.74a2.4,2.4,0,0,1,1.849-1.849,12.346,12.346,0,0,1,2.055.068,5.548,5.548,0,0,1,.959-3.493,5.169,5.169,0,0,1-.274-3.151A21.336,21.336,0,0,1,192.1,61.2a2.631,2.631,0,0,1-1.37-2.192l.479-3.082a2.246,2.246,0,0,1,2.192-1.644,11.086,11.086,0,0,1,1.712.274,6.168,6.168,0,0,0,.479-1.781A3.809,3.809,0,0,1,197.857,50.447Zm.548,2.466a59.56,59.56,0,0,0,7.672,2.123,63.346,63.346,0,0,0,7.535.822.823.823,0,0,1,.548.685q-.261,1.188-.411,2.4A1.313,1.313,0,0,0,214.3,60.1q1.513.286,3.014.616a10.2,10.2,0,0,1-.342,1.37q-1.287-.238-2.6-.411a1.175,1.175,0,0,0-1.233,1.233,5.862,5.862,0,0,1-.479,2.26A38.655,38.655,0,0,1,196.9,63.667a1.321,1.321,0,0,1-.274-.959q.086-1.1.274-2.192a1.338,1.338,0,0,0-.959-1.233q-1.3-.162-2.6-.342a13.724,13.724,0,0,1,.205-1.918.611.611,0,0,1,.205-.274,9.326,9.326,0,0,0,3.014.342,1.579,1.579,0,0,0,.616-.479q.34-1.425.548-2.877A3.635,3.635,0,0,1,198.4,52.913Zm-1.781,13.426a49.966,49.966,0,0,0,15.617,1.575,1.3,1.3,0,0,1,.205.342,8.451,8.451,0,0,1-.068,2.4,1.324,1.324,0,0,0,.822,1.37l2.877.205V73.6q-1.645-.034-3.288.068l-.479.479q-.182,1.365-.274,2.74a1.3,1.3,0,0,1-.205.342,39.962,39.962,0,0,1-15.754-.068,1.7,1.7,0,0,1-.342-.548,7.761,7.761,0,0,1,.068-2.329,1.277,1.277,0,0,0-.822-1.3q-1.51-.086-3.014-.205.125-1.092.205-2.192,1.221.155,2.466.274a1.487,1.487,0,0,0,1.1-.548,11.818,11.818,0,0,0,.411-3.014A1.246,1.246,0,0,1,196.624,66.338Zm-.548,13.426a43.744,43.744,0,0,0,15.412,0,.824.824,0,0,1,.548.548,19.811,19.811,0,0,0,.274,3.014,1.58,1.58,0,0,0,.616.479l3.014.137a3.362,3.362,0,0,1,.137,1.3q-1.442.047-2.877.205a1.272,1.272,0,0,0-.822,1.644,10.405,10.405,0,0,0,.137,1.37,1.2,1.2,0,0,1-.411.822,40.616,40.616,0,0,1-15.617,1.37.956.956,0,0,1-.342-.479l-.274-2.74a1.414,1.414,0,0,0-1.781-.822q-1,.048-1.986.137a16.226,16.226,0,0,1-.137-2.192,16.181,16.181,0,0,0,3.014-.205.956.956,0,0,0,.479-.342,27.144,27.144,0,0,0,.274-3.7A2.272,2.272,0,0,1,196.076,79.764ZM212.1,91.819a1.521,1.521,0,0,1,.616.411q.265,1.289.411,2.6a1.183,1.183,0,0,0,1.507.822q1.208-.078,2.4-.274a2.655,2.655,0,0,1,0,1.438l-2.466.411a1.308,1.308,0,0,0-.959,1.164q.205,1.093.411,2.192a1.26,1.26,0,0,1-.274.616,38.843,38.843,0,0,1-15.48,2.877,1.052,1.052,0,0,1-.479-.753q-.183-1.168-.411-2.329a1.258,1.258,0,0,0-1.164-.822l-2.74.411q-.118-1.1-.274-2.192a24.7,24.7,0,0,0,2.877-.342,1.168,1.168,0,0,0,.685-1.3q-.122-1.235-.274-2.466a1.108,1.108,0,0,1,.274-.822A47.868,47.868,0,0,0,212.1,91.819Z" transform="translate(-189.5 -50.438)" fill="#fff" fill-rule="evenodd" opacity="0.942"/>
    </g>
    <g id="Group_10691" data-name="Group 10691" transform="translate(-111)">
      <g id="Group_10674" data-name="Group 10674" transform="translate(3084.445 13470.316)">
        <path id="Path_9726" data-name="Path 9726" d="M126.364,188.493a2.6,2.6,0,0,1,1.1.205l3.63,3.63q.614,2.468-1.849,1.712l-3.493-3.493A1.444,1.444,0,0,1,126.364,188.493Z" transform="translate(-125.549 -188.492)" fill="#fff" fill-rule="evenodd" opacity="0.912"/>
      </g>
      <path id="Path_9727" data-name="Path 9727" d="M101.508,248.446q2.467-.034,4.932.068a1.236,1.236,0,0,1,1.027,1.712,1.029,1.029,0,0,1-.616.616q-2.877.137-5.754,0a1.217,1.217,0,0,1-.616-1.575A1.336,1.336,0,0,1,101.508,248.446Z" transform="translate(2980.601 13230.092)" fill="#fff" fill-rule="evenodd" opacity="0.928"/>
      <g id="Group_10676" data-name="Group 10676" transform="translate(3084.49 13483.584)">
        <path id="Path_9728" data-name="Path 9728" d="M129.8,285.362q2.274-.228,1.575,1.918l-3.63,3.63q-2.045.559-1.849-1.575A53.5,53.5,0,0,1,129.8,285.362Z" transform="translate(-125.876 -285.34)" fill="#fff" fill-rule="evenodd" opacity="0.909"/>
      </g>
    </g>
  </g>
</svg>
